<?xml version="1.0" encoding="UTF-8"?>
<!DOCTYPE svg PUBLIC "-//W3C//DTD SVG 1.1//EN" "http://www.w3.org/Graphics/SVG/1.1/DTD/svg11.dtd">
<!-- Creator: CorelDRAW X7 -->
<svg xmlns="http://www.w3.org/2000/svg" xml:space="preserve" width="282.22mm" height="61.03mm" version="1.1" style="shape-rendering:geometricPrecision; text-rendering:geometricPrecision; image-rendering:optimizeQuality; fill-rule:evenodd; clip-rule:evenodd"
viewBox="0 0 28222 6103"
 xmlns:xlink="http://www.w3.org/1999/xlink">
 <defs>
  <style type="text/css">
   <![CDATA[
    .str3 {stroke:#373435;stroke-width:10.46}
    .str1 {stroke:#373435;stroke-width:62.74}
    .str2 {stroke:#373435;stroke-width:73.2}
    .str0 {stroke:#373435;stroke-width:2.26}
    .fil0 {fill:none}
    .fil7 {fill:none;fill-rule:nonzero}
    .fil3 {fill:#373435}
    .fil2 {fill:#3980C0}
    .fil6 {fill:#F6A632}
    .fil4 {fill:#FEFEFE}
    .fil5 {fill:#373435;fill-rule:nonzero}
    .fil1 {fill:#3980C0;fill-rule:nonzero}
   ]]>
  </style>
 </defs>
 <g id="Layer_x0020_1">
  <metadata id="CorelCorpID_0Corel-Layer"/>
  <polygon class="fil0" points="0,6103 28222,6103 28222,0 0,0 "/>
  <path class="fil1" d="M10892 573l1155 0 0 2230c0,220 -35,429 -104,625 -68,197 -176,369 -324,516 -147,147 -301,250 -462,310 -225,83 -495,125 -810,125 -182,0 -381,-13 -596,-39 -215,-25 -395,-75 -540,-151 -145,-76 -277,-183 -396,-323 -121,-139 -203,-283 -247,-431 -71,-238 -107,-449 -107,-632l0 -2230 1155 0 0 2283c0,204 57,363 169,477 113,115 270,173 471,173 197,0 353,-57 467,-170 112,-113 169,-273 169,-480l0 -2283zm1929 0l1079 0 1404 2067 0 -2067 1093 0 0 3743 -1093 0 -1396 -2055 0 2055 -1087 0 0 -3743zm4349 0l2167 0c361,0 638,90 831,268 194,179 290,400 290,664 0,222 -68,411 -207,569 -91,106 -226,189 -403,251 269,65 466,175 593,333 126,158 190,355 190,593 0,195 -45,369 -135,524 -91,155 -214,277 -370,368 -98,55 -244,96 -440,122 -261,34 -433,51 -519,51l-1997 0 0 -3743zm1166 1469l504 0c181,0 307,-31 378,-93 70,-63 106,-153 106,-270 0,-109 -36,-195 -106,-256 -71,-62 -195,-92 -370,-92l-512 0 0 711zm0 1469l590 0c199,0 340,-36 422,-106 81,-71 122,-165 122,-284 0,-111 -40,-200 -121,-267 -81,-67 -223,-101 -426,-101l-587 0 0 758zm2901 -2938l1155 0 0 1414 1212 -1414 1538 0 -1367 1406 1429 2337 -1422 0 -790 -1537 -600 626 0 911 -1155 0 0 -3743z"/>
  <path class="fil1" d="M8811 4958l166 0 0 321c0,32 -5,62 -15,90 -9,28 -25,53 -46,74 -21,21 -44,36 -67,45 -32,12 -71,18 -116,18 -27,0 -55,-2 -86,-6 -31,-3 -57,-11 -78,-21 -21,-11 -40,-27 -57,-47 -17,-20 -29,-41 -35,-62 -11,-34 -16,-65 -16,-91l0 -321 166 0 0 329c0,29 9,52 25,68 16,17 39,25 68,25 28,0 50,-8 67,-24 16,-16 24,-40 24,-69l0 -329zm501 0l167 0 0 293c0,61 -6,108 -17,140 -11,32 -32,59 -65,82 -33,22 -76,33 -127,33 -55,0 -97,-8 -127,-22 -30,-15 -53,-36 -69,-65 -16,-28 -26,-63 -29,-105l159 -21c0,23 2,41 6,52 4,12 11,21 20,28 7,5 16,7 27,7 19,0 33,-7 42,-20 8,-14 13,-38 13,-70l0 -332zm284 0l167 0 0 539 -167 0 0 -539zm618 450l-189 0 -27 89 -170 0 203 -539 182 0 202 539 -174 0 -27 -89zm-35 -117l-59 -193 -59 193 118 0zm290 -333l156 0 202 298 0 -298 157 0 0 539 -157 0 -201 -296 0 296 -157 0 0 -539zm878 0l156 0 202 298 0 -298 157 0 0 539 -157 0 -201 -296 0 296 -157 0 0 -539zm950 450l-189 0 -27 89 -170 0 203 -539 182 0 202 539 -174 0 -27 -89zm-35 -117l-59 -193 -59 193 118 0zm260 28l158 -10c4,25 11,45 21,58 17,22 42,33 74,33 23,0 42,-6 55,-17 12,-11 19,-24 19,-39 0,-14 -6,-26 -18,-37 -13,-11 -41,-22 -85,-31 -73,-17 -125,-39 -156,-66 -32,-27 -48,-62 -48,-104 0,-27 9,-53 25,-78 16,-25 40,-44 72,-58 32,-14 76,-21 132,-21 69,0 122,13 158,38 36,26 57,67 64,123l-156 9c-4,-24 -13,-42 -26,-53 -14,-11 -32,-17 -56,-17 -19,0 -34,4 -44,12 -9,8 -14,19 -14,30 0,9 4,16 12,23 7,8 26,14 55,20 73,16 125,32 156,48 32,16 55,36 69,60 15,23 22,50 22,79 0,35 -10,67 -29,96 -19,29 -46,51 -80,66 -34,15 -78,23 -130,23 -91,0 -155,-18 -190,-53 -35,-35 -55,-80 -60,-134zm579 -361l167 0 0 539 -167 0 0 -539zm265 270c0,-88 25,-157 74,-206 49,-49 117,-73 205,-73 89,0 158,24 207,72 48,48 73,116 73,202 0,63 -11,115 -32,155 -21,40 -52,72 -92,94 -40,23 -90,34 -150,34 -61,0 -111,-10 -151,-29 -40,-20 -72,-50 -97,-92 -24,-42 -37,-94 -37,-157zm167 0c0,54 10,94 30,117 20,24 48,36 83,36 35,0 63,-12 83,-35 20,-23 29,-65 29,-125 0,-51 -10,-88 -30,-111 -21,-24 -49,-35 -84,-35 -33,0 -61,12 -81,35 -20,24 -30,63 -30,118zm483 -270l155 0 202 298 0 -298 158 0 0 539 -158 0 -201 -296 0 296 -156 0 0 -539zm949 450l-188 0 -27 89 -170 0 202 -539 183 0 202 539 -175 0 -27 -89zm-35 -117l-59 -193 -59 193 118 0zm289 -333l167 0 0 406 260 0 0 133 -427 0 0 -539zm754 0l312 0c52,0 92,13 120,39 28,25 42,57 42,95 0,32 -10,59 -30,82 -14,15 -33,27 -58,36 38,10 67,25 85,48 18,23 27,51 27,86 0,28 -6,53 -19,75 -13,22 -31,40 -53,53 -14,8 -36,14 -64,17 -37,5 -62,8 -74,8l-288 0 0 -539zm168 211l73 0c26,0 44,-4 54,-13 10,-9 15,-22 15,-39 0,-16 -5,-28 -15,-37 -10,-9 -28,-13 -53,-13l-74 0 0 102zm0 212l85 0c29,0 49,-5 61,-15 11,-11 17,-24 17,-41 0,-16 -6,-29 -17,-39 -12,-9 -32,-14 -62,-14l-84 0 0 109zm417 -423l445 0 0 115 -278 0 0 86 258 0 0 110 -258 0 0 106 287 0 0 122 -454 0 0 -539zm546 539l0 -539 277 0c52,0 91,4 118,13 27,9 49,25 66,49 17,24 25,53 25,88 0,30 -7,56 -19,77 -13,22 -31,40 -53,53 -14,9 -34,16 -58,22 19,6 34,13 43,19 6,5 15,14 26,29 12,14 20,25 24,33l80 156 -188 0 -89 -164c-11,-22 -21,-36 -30,-42 -12,-8 -25,-12 -41,-12l-14 0 0 218 -167 0zm167 -320l70 0c8,0 22,-3 44,-7 11,-3 20,-8 27,-17 7,-10 11,-20 11,-32 0,-17 -6,-31 -17,-40 -11,-9 -32,-14 -62,-14l-73 0 0 110zm417 -219l312 0c51,0 91,13 119,39 28,25 42,57 42,95 0,32 -10,59 -30,82 -13,15 -32,27 -58,36 39,10 67,25 85,48 19,23 28,51 28,86 0,28 -7,53 -20,75 -13,22 -30,40 -53,53 -14,8 -35,14 -63,17 -38,5 -63,8 -75,8l-287 0 0 -539zm167 211l73 0c26,0 44,-4 54,-13 11,-9 16,-22 16,-39 0,-16 -5,-28 -16,-37 -10,-9 -28,-13 -53,-13l-74 0 0 102zm0 212l85 0c29,0 49,-5 61,-15 12,-11 18,-24 18,-41 0,-16 -6,-29 -18,-39 -11,-9 -32,-14 -61,-14l-85 0 0 109zm736 27l-189 0 -27 89 -170 0 203 -539 182 0 202 539 -174 0 -27 -89zm-35 -117l-59 -193 -59 193 118 0zm260 28l158 -10c4,25 11,45 21,58 17,22 42,33 74,33 23,0 42,-6 55,-17 12,-11 19,-24 19,-39 0,-14 -6,-26 -18,-37 -12,-11 -41,-22 -85,-31 -73,-17 -125,-39 -156,-66 -32,-27 -47,-62 -47,-104 0,-27 8,-53 24,-78 16,-25 40,-44 72,-58 32,-14 76,-21 132,-21 69,0 122,13 158,38 36,26 57,67 64,123l-156 9c-4,-24 -13,-42 -26,-53 -14,-11 -32,-17 -56,-17 -19,0 -34,4 -43,12 -10,8 -15,19 -15,30 0,9 4,16 12,23 7,8 26,14 55,20 73,16 125,32 157,48 31,16 54,36 68,60 15,23 22,50 22,79 0,35 -10,67 -29,96 -19,29 -46,51 -80,66 -34,15 -77,23 -130,23 -91,0 -155,-18 -190,-53 -35,-35 -55,-80 -60,-134zm579 -361l167 0 0 539 -167 0 0 -539zm258 361l158 -10c3,25 10,45 21,58 17,22 41,33 73,33 24,0 42,-6 55,-17 13,-11 19,-24 19,-39 0,-14 -6,-26 -18,-37 -12,-11 -40,-22 -85,-31 -73,-17 -125,-39 -156,-66 -31,-27 -47,-62 -47,-104 0,-27 8,-53 24,-78 16,-25 40,-44 72,-58 33,-14 77,-21 133,-21 69,0 121,13 157,38 37,26 58,67 65,123l-157 9c-4,-24 -13,-42 -26,-53 -13,-11 -32,-17 -55,-17 -20,0 -34,4 -44,12 -10,8 -15,19 -15,30 0,9 4,16 12,23 8,8 26,14 56,20 73,16 125,32 156,48 31,16 54,36 69,60 14,23 21,50 21,79 0,35 -9,67 -28,96 -20,29 -46,51 -81,66 -34,15 -77,23 -129,23 -92,0 -155,-18 -190,-53 -36,-35 -56,-80 -60,-134zm824 -361l166 0 0 204 174 -204 222 0 -197 202 206 337 -205 0 -114 -221 -86 90 0 131 -166 0 0 -539zm579 270c0,-88 25,-157 74,-206 49,-49 117,-73 204,-73 90,0 159,24 208,72 48,48 73,116 73,202 0,63 -11,115 -32,155 -21,40 -52,72 -92,94 -40,23 -90,34 -150,34 -61,0 -111,-10 -151,-29 -40,-20 -72,-50 -97,-92 -25,-42 -37,-94 -37,-157zm166 0c0,54 11,94 31,117 20,24 48,36 83,36 35,0 63,-12 83,-35 19,-23 29,-65 29,-125 0,-51 -10,-88 -31,-111 -20,-24 -48,-35 -83,-35 -34,0 -61,12 -81,35 -20,24 -31,63 -31,118zm481 -270l219 0 84 328 84 -328 219 0 0 539 -137 0 0 -411 -105 411 -123 0 -105 -411 0 411 -136 0 0 -539zm711 0l277 0c60,0 105,14 135,43 30,29 45,70 45,123 0,54 -16,97 -49,127 -33,31 -83,46 -150,46l-91 0 0 200 -167 0 0 -539zm167 230l41 0c32,0 55,-5 68,-17 13,-11 20,-25 20,-42 0,-17 -6,-32 -17,-43 -12,-12 -33,-18 -64,-18l-48 0 0 120zm728 -230l166 0 0 321c0,32 -5,62 -15,90 -10,28 -25,53 -46,74 -22,21 -44,36 -67,45 -32,12 -71,18 -117,18 -26,0 -54,-2 -85,-6 -31,-3 -57,-11 -78,-21 -21,-11 -40,-27 -57,-47 -18,-20 -29,-41 -36,-62 -10,-34 -15,-65 -15,-91l0 -321 166 0 0 329c0,29 8,52 25,68 16,17 38,25 67,25 29,0 51,-8 67,-24 17,-16 25,-40 25,-69l0 -329zm238 0l507 0 0 133 -170 0 0 406 -166 0 0 -406 -171 0 0 -133zm582 0l445 0 0 115 -278 0 0 86 258 0 0 110 -258 0 0 106 286 0 0 122 -453 0 0 -539zm545 539l0 -539 278 0c51,0 91,4 118,13 27,9 49,25 66,49 16,24 25,53 25,88 0,30 -7,56 -20,77 -12,22 -30,40 -52,53 -14,9 -34,16 -59,22 20,6 35,13 44,19 6,5 15,14 26,29 12,14 20,25 23,33l81 156 -188 0 -89 -164c-11,-22 -21,-36 -30,-42 -12,-8 -26,-12 -41,-12l-14 0 0 218 -168 0zm168 -320l70 0c7,0 22,-3 44,-7 11,-3 20,-8 27,-17 7,-10 11,-20 11,-32 0,-17 -6,-31 -17,-40 -11,-9 -32,-14 -62,-14l-73 0 0 110z"/>
  <g id="_2055117356048">
   <path class="fil2" d="M4064 231c1384,387 2029,867 2770,2013 60,1435 -196,2197 -1058,3255 -1347,501 -2151,492 -3423,0 -893,-1126 -1133,-1893 -1058,-3255 794,-1197 1451,-1663 2769,-2013l0 0z"/>
   <polyline class="fil0 str0" points="2133,2519 2072,2608 1951,2790 1871,3023 1828,3122 1836,3286 1903,3399 1927,3530 1959,3622 2032,3756 2026,3825 2042,3898 2099,4000 2152,4067 2168,4147 "/>
   <path class="fil3" d="M4064 5218c84,-6 150,-34 228,-63 118,-45 218,-93 428,-40 57,14 125,40 190,68 137,58 294,113 469,98l15 -62c-75,-59 -103,-143 -126,-248 -6,-28 -12,-55 -19,-84 0,0 0,0 0,0l-6 -22 -22 -2c-129,-10 -221,-42 -337,-83 -49,-18 -102,-37 -164,-56 -169,-53 -323,-13 -466,23 -76,19 -117,37 -184,40l-1 0 -4 0 -4 0 0 0c-68,-2 -109,-20 -184,-40 -143,-36 -299,-76 -467,-23 -62,19 -115,38 -164,56 -115,41 -207,73 -336,83l-22 2 -6 22c0,0 0,0 0,0 -8,29 -13,56 -20,84 -23,105 -47,195 -122,254l12 47c175,15 323,-33 459,-92 65,-28 129,-54 187,-68 211,-53 321,-1 440,44 78,29 145,57 229,63l-3 -1zm0 -468l0 0c-115,-31 -231,-87 -333,-162 -21,-16 -42,-32 -62,-50 -8,-7 -15,-14 -23,-21 -133,54 -324,115 -519,150 -163,30 -329,40 -469,10 -145,-29 -261,-100 -315,-234 -9,-23 -17,-48 -22,-74 0,0 0,0 0,0 -112,-74 -168,-164 -186,-236 -4,-15 -6,-30 -7,-43 -1,-8 -1,-15 0,-23 -77,-76 -123,-155 -130,-229 -1,-16 -1,-31 2,-47 2,-9 3,-18 6,-26l0 0 0 0 1 0c-39,-46 -69,-92 -90,-146 -22,-56 -32,-119 -29,-196 -137,-127 -120,-324 -36,-490 98,-195 229,-380 286,-544 32,-91 57,-34 57,-6 0,136 -22,282 -50,413 -3,14 -6,28 -15,73 -14,67 -14,130 5,176 8,19 19,34 33,47 14,12 33,21 57,26 53,11 128,-1 229,-43 247,-104 486,-195 656,-207 190,-13 301,63 264,305 -5,33 -11,67 -16,98 -14,82 -21,128 -16,171 4,33 13,70 36,108 19,32 49,64 95,96 2,-6 5,-13 7,-19 -13,-138 0,-275 58,-405 11,-23 22,-46 36,-68l-266 -1296c-18,-89 -39,-145 -74,-171 -47,-35 -124,-25 -178,-16 -46,8 -46,-19 -13,-38 50,-28 110,-68 164,-104 98,-65 196,-123 305,-40 14,-93 88,-142 158,-190 20,-15 70,-43 96,-82 25,-36 54,-49 59,-7 1,11 5,34 9,58 50,-54 125,-85 174,-137 28,-30 29,-58 55,-59 26,1 27,29 55,59 49,52 124,83 174,137 4,-24 8,-47 9,-58 5,-42 34,-30 59,7 27,38 76,67 96,82 69,48 142,97 156,190 109,-83 208,-25 305,40 55,36 116,76 165,104 32,18 32,45 -14,38 -53,-9 -132,-19 -179,16 -35,27 -56,82 -74,171l-266 1296c13,22 25,45 35,68 58,130 72,268 58,405 3,6 5,13 7,19 46,-32 76,-64 95,-96 23,-38 32,-75 36,-108 5,-44 -2,-89 -16,-171 -5,-30 -11,-65 -16,-98 -37,-241 74,-318 265,-305 171,11 409,103 657,207 101,43 176,54 229,43 23,-5 41,-13 56,-26 15,-12 26,-28 33,-47 19,-46 19,-109 6,-176 -9,-45 -12,-59 -15,-73 -27,-131 -49,-277 -49,-413 0,-28 25,-85 57,6 57,164 188,349 286,544 85,167 102,364 -36,490 3,77 -7,140 -29,196 -20,54 -51,100 -89,146l0 0 0 0 0 0c3,8 5,17 6,26 3,16 3,32 2,47 -6,74 -53,152 -130,229 0,8 0,15 0,23 -1,13 -3,28 -7,43 -18,72 -73,162 -185,236 0,0 0,0 0,0 -5,26 -13,51 -22,74 -54,134 -170,204 -315,234 -140,30 -306,19 -469,-10 -196,-34 -386,-96 -519,-150 -8,7 -15,14 -23,21 -21,18 -41,34 -62,50 -102,75 -219,131 -333,162l2 0z"/>
   <path class="fil4" d="M3994 2693c25,32 51,65 71,105 19,-40 45,-73 70,-105 39,-50 77,-97 79,-169 2,-74 -42,-134 -85,-195 -23,-33 -46,-65 -64,-100 -18,35 -41,68 -64,100 -43,61 -87,121 -85,195 1,72 39,119 79,169l-1 0z"/>
   <path class="fil4" d="M2352 4318c61,26 117,40 173,46 51,6 103,5 159,3 39,-2 43,61 -1,63 -57,3 -110,3 -165,-3 -41,-4 -82,-12 -125,-26 2,8 5,15 8,22 45,111 145,171 270,196 131,27 289,17 446,-11 163,-29 323,-77 447,-123 -185,-34 -328,-97 -427,-194 -112,-109 -165,-258 -154,-454 7,-128 46,-259 82,-381 25,-85 49,-167 59,-237 19,-130 -14,-227 -190,-253 -135,37 -292,99 -454,167 -114,48 -201,60 -266,47 -35,-7 -62,-20 -85,-39 -22,-19 -39,-43 -51,-70 -24,-58 -25,-134 -9,-213 1,-5 8,-39 15,-73 15,-74 30,-142 41,-215 -29,57 -62,114 -95,171 -102,179 -205,358 -170,509 44,191 267,234 431,258 70,10 62,73 -15,60 -91,-14 -195,-37 -277,-73 -17,-8 -33,-16 -49,-25 2,48 11,89 25,126 70,181 207,202 382,219 81,8 78,70 -4,63 -88,-8 -185,-24 -258,-54 -12,-5 -24,-11 -35,-17 -17,97 60,188 153,233 95,46 207,45 281,39 56,-4 56,63 1,63 -59,0 -124,-1 -186,-9 -42,-6 -82,-15 -119,-29 1,5 2,9 3,14 16,59 62,133 156,197l3 3z"/>
   <path class="fil4" d="M3872 2941c-137,91 -223,195 -273,306 -39,86 -56,176 -58,268 35,-53 78,-101 121,-149 94,-108 190,-217 207,-385 1,-13 2,-26 3,-40z"/>
   <path class="fil4" d="M2880 4848c0,-2 0,0 0,0z"/>
   <path class="fil4" d="M4028 4995l0 -172 0 -14c-64,-6 -99,-23 -168,-40 -135,-34 -280,-71 -433,-24 -61,19 -114,37 -162,55 -113,40 -205,73 -329,85 -4,19 -9,39 -13,59 -10,43 -19,88 -33,130 103,-2 197,-46 289,-88 59,-27 117,-54 176,-70 238,-63 398,-10 547,39 54,18 76,29 127,40l-1 0z"/>
   <path class="fil4" d="M5777 4318c-61,26 -117,40 -173,46 -51,6 -103,5 -159,3 -39,-2 -43,61 1,63 57,3 110,3 165,-3 41,-4 82,-12 125,-26 -2,8 -5,15 -8,22 -45,111 -145,171 -270,196 -131,27 -289,17 -445,-11 -164,-29 -324,-77 -448,-123 185,-34 328,-97 428,-194 112,-109 165,-258 154,-454 -7,-128 -46,-259 -82,-381 -25,-85 -49,-167 -59,-237 -18,-130 14,-227 190,-253 135,37 292,99 454,167 114,48 201,60 266,47 34,-7 61,-20 84,-39 22,-19 39,-43 51,-70 24,-58 25,-134 9,-213 -1,-5 -8,-39 -15,-73 -16,-74 -30,-142 -41,-215 29,57 62,114 94,171 103,179 205,358 170,509 -44,191 -267,234 -430,258 -70,10 -62,73 15,60 90,-14 194,-37 276,-73 17,-8 33,-16 48,-25 -2,48 -11,89 -25,126 -70,181 -207,202 -382,219 -81,8 -77,70 4,63 87,-8 184,-24 257,-54 12,-5 24,-11 35,-17 17,97 -60,188 -153,233 -95,46 -207,45 -281,39 -55,-4 -56,63 -1,63 60,0 125,-1 186,-9 42,-6 82,-15 118,-29 -1,5 -2,9 -3,14 -15,59 -61,133 -155,197l0 3z"/>
   <path class="fil4" d="M4257 2941c137,91 223,195 273,306 39,86 56,176 57,268 -35,-53 -77,-101 -120,-149 -94,-108 -190,-217 -207,-385 -1,-13 -2,-26 -3,-40z"/>
   <path class="fil4" d="M5249 4848c-1,-2 0,0 0,0z"/>
   <path class="fil4" d="M4100 4995l0 -172 0 -14c65,-6 99,-23 168,-40 135,-34 281,-71 432,-24 61,19 113,37 162,55 114,40 206,73 330,85 4,19 9,39 13,59 9,43 19,88 32,130 -103,-2 -197,-46 -289,-88 -59,-27 -117,-54 -177,-70 -237,-63 -397,-10 -546,39 -54,18 -76,29 -127,40l2 0z"/>
   <path class="fil4" d="M4064 5065c66,-5 108,-25 182,-50 141,-46 292,-96 511,-38 54,14 109,40 166,66 36,16 73,33 110,48 71,28 146,49 229,46 10,23 22,44 37,64 -132,-6 -252,-57 -363,-105 -67,-29 -131,-56 -194,-72 -229,-57 -344,-14 -472,34 -83,31 -133,50 -206,57 -73,-6 -124,-26 -206,-57 -128,-48 -243,-91 -473,-34 -63,16 -126,43 -193,72 -110,47 -230,99 -362,105 14,-20 26,-41 37,-64 83,3 158,-17 230,-46 37,-15 73,-31 108,-48 56,-26 112,-52 166,-66 220,-58 371,-8 511,38 75,25 117,45 183,50l-1 0z"/>
   <path class="fil4 str1" d="M4064 5179c84,-6 150,-34 228,-63 118,-45 225,-84 435,-32 58,15 119,41 184,69 137,58 287,123 462,109l17 -56c-75,-59 -99,-170 -122,-275 -6,-28 -12,-55 -19,-83 0,1 0,1 0,0l-6 -22 -22 -2c-129,-10 -217,-49 -332,-89 -49,-17 -88,-42 -150,-62 -169,-53 -342,-2 -485,35 -76,19 -138,70 -205,72l0 0 -4 0 -4 0 -1 0c-67,-2 -87,-52 -162,-72 -143,-37 -298,-76 -467,-23 -62,19 -130,60 -179,77 -114,41 -204,67 -321,62l-22 2 -6 22c0,1 0,1 0,0 -8,29 -13,56 -20,83 -23,105 -48,216 -122,275l17 56c175,15 326,-50 461,-109 65,-28 127,-54 184,-69 211,-53 317,-13 436,32 78,29 145,57 229,63l-4 0z"/>
   <path class="fil4" d="M4064 4223c-16,0 -19,26 -27,50 -7,22 -16,41 -28,61 -6,11 -12,21 -17,32l0 0c-48,107 4,179 71,248 70,-73 119,-142 71,-248 -5,-11 -11,-21 -16,-32 -11,-20 -20,-40 -28,-61 -8,-24 -11,-50 -27,-50l1 0z"/>
   <path class="fil4" d="M4191 2746c-2,2 -4,5 -6,8 -34,43 -69,88 -84,151 -16,70 -56,76 -71,3 -12,-57 -42,-99 -72,-139l0 2c-6,-8 -12,-16 -18,-24 0,77 -1,174 -7,241 -20,187 -122,305 -223,420 -79,90 -157,178 -184,295l-10 42 -37 -22c-76,-44 -123,-92 -151,-139 -29,-48 -40,-93 -45,-133 -6,-52 2,-100 16,-189 4,-25 9,-54 15,-97 28,-184 -55,-242 -198,-233 -17,1 -34,3 -53,6 119,55 141,159 122,290 -10,76 -35,159 -61,247 -35,118 -72,245 -79,366 -10,177 37,310 135,406 100,98 254,158 458,187l18 9 0 0 0 0c17,18 35,35 53,51 19,16 38,32 58,47 67,50 206,154 287,152 85,-1 305,-152 305,-152 0,0 40,-30 58,-47 19,-16 37,-33 54,-51l18 -9c203,-29 357,-89 457,-187 99,-96 146,-229 136,-406 -7,-122 -44,-248 -79,-366 -26,-88 -50,-171 -62,-247 -19,-131 3,-235 123,-290 -18,-3 -36,-5 -53,-6 -144,-10 -227,49 -199,233 7,42 11,71 16,97 15,88 23,137 16,189 -5,40 -16,85 -45,133 -29,47 -75,95 -151,139l-37 22 -10 -42c-27,-117 -104,-205 -183,-295 -100,-115 -203,-233 -223,-420 -7,-67 -8,-165 -7,-242l3 0z"/>
   <path class="fil4" d="M3875 2657c-13,-30 -22,-63 -23,-103 -2,-95 47,-164 97,-233 45,-62 81,-102 95,-192 7,-45 32,-38 38,1 15,84 52,127 98,191 49,69 99,138 97,233 -1,40 -10,74 -23,103 0,66 -1,152 0,215 107,65 188,138 249,216l1 -6 253 -1230c22,-105 47,-171 98,-209 20,-15 42,-24 69,-29 -7,-5 -15,-10 -22,-15 -80,-54 -160,-107 -245,-54 -31,20 -46,35 -52,70l-124 688c-11,52 -74,42 -61,-17l120 -666c8,-42 20,-88 8,-129 -18,-61 -76,-101 -129,-138 -24,-17 -47,-33 -66,-50 -2,16 -5,31 -7,44l0 0 -78 792c-6,49 -68,43 -62,-14l66 -674c7,-68 10,-100 -41,-149 -21,-20 -47,-40 -71,-59 -25,-19 -50,-35 -70,-55 -10,-10 -19,-21 -26,-32 -7,11 -16,22 -27,32 -20,19 -45,36 -70,55 -24,19 -49,38 -71,59 -51,48 -47,81 -41,149l66 674c6,57 -56,62 -62,14l-78 -792 0 0c-2,-13 -4,-28 -7,-44 -20,17 -43,33 -67,50 -52,36 -110,76 -128,138 -13,42 0,88 7,129l120 666c13,59 -49,69 -61,17l-125 -688c-6,-35 -21,-50 -52,-70 -84,-54 -164,0 -244,54 -7,5 -15,10 -22,15 26,5 49,15 69,29 50,37 76,104 98,209l253 1230 1 6c60,-78 141,-151 248,-216 1,-63 0,-149 1,-215l3 0z"/>
   <path class="fil5" d="M4039 5093l0 0 0 0zm1276 6l0 0c4,11 9,21 15,32 -127,29 -270,-26 -401,-85 -98,-44 -196,-88 -289,-92 -106,-5 -205,5 -302,28 -97,23 -191,60 -289,109 -1,1 -1,1 -2,1 0,0 0,0 -1,0l0 0c0,0 0,0 0,0 0,0 0,0 -1,0l0 0 0 0 0 0c0,0 0,0 0,0l0 0 0 0 0 0 0 0 0 0 0 0c0,0 0,0 0,0l0 0c0,0 0,0 0,0l0 0 -1 0 0 0 0 0 0 0 -1 0 0 0 0 0 -1 0c0,0 0,0 0,0l0 0 0 0 0 0c0,0 0,0 0,0l0 0 0 0 0 0 0 0 0 0 0 0 0 0 0 0 0 0 0 0c0,0 0,0 0,0l0 0 0 0c0,0 -1,0 -1,-1l0 0 0 0 0 0c0,0 0,0 0,0l0 0 0 0c0,0 -1,0 -1,-1 0,0 0,0 0,0 -97,-49 -192,-86 -289,-109 -97,-23 -197,-33 -303,-28 -94,4 -183,49 -270,92 -115,57 -240,107 -367,78l15 -32c114,26 227,-23 337,-78 91,-45 184,-91 284,-96 109,-5 212,5 313,29 97,23 192,60 290,108 97,-49 193,-85 290,-108 100,-24 202,-34 312,-29 99,5 200,50 301,96 126,56 256,111 372,85l-10 1z"/>
   <path class="fil5" d="M4039 4806c0,0 0,0 0,0l0 0zm1201 9l0 0c4,11 9,21 15,32 -127,21 -194,-33 -326,-88 -98,-44 -196,-89 -289,-93 -106,-5 -205,5 -302,29 -97,23 -191,60 -289,109 -1,1 -1,1 -2,1 0,0 0,0 -1,1l0 0 0 0c0,0 0,0 -1,1l0 0 0 0 0 0 0 0 0 0 0 0 0 0 0 0c0,0 0,0 0,0l-1 0 0 0 0 0 0 0c0,0 0,0 -1,0l0 0 0 0 0 0 -1 0 0 0 0 0 -1 0 0 0 0 0 0 0 0 0 0 0 0 0 0 0 0 0 0 0c0,0 0,0 0,0l0 0 0 0 0 0 0 0 0 0c0,0 0,0 0,0l0 0c0,0 -1,0 -1,-1l0 0c0,0 0,0 0,0l0 0c0,0 0,0 0,0l0 0c0,0 -1,0 -1,-1 0,0 0,0 0,0 -97,-49 -192,-86 -289,-109 -362,-88 -613,210 -864,153l15 -32c232,53 499,-242 857,-156 97,24 192,61 290,109 97,-48 193,-85 290,-109 100,-24 202,-34 312,-29 99,5 200,50 301,97 126,52 181,101 296,88l-7 -2z"/>
   <polygon class="fil5" points="4020,4788 4055,4788 4055,5059 4020,5059 "/>
   <path class="fil5" d="M2211 2149c-112,-53 -167,-79 -278,-132 -21,44 -31,67 -50,113 -23,-10 -35,-14 -58,-24 52,-126 82,-187 147,-300 22,13 32,19 54,31 -24,41 -35,62 -57,106 109,56 163,85 273,141 -13,25 -19,38 -32,65l1 0z"/>
   <path class="fil5" d="M1999 1761c17,-28 26,-42 43,-69 67,44 100,66 168,110 26,18 44,28 53,32 14,6 28,6 42,2 14,-4 26,-15 38,-31 11,-16 17,-31 16,-44 -1,-13 -6,-25 -15,-34 -9,-9 -25,-23 -48,-40 -65,-49 -99,-74 -164,-123 19,-26 29,-38 48,-63 61,49 92,73 152,122 34,28 58,49 70,64 12,14 20,30 24,45 4,16 4,32 0,50 -4,18 -14,37 -29,59 -19,26 -35,45 -51,55 -16,10 -32,16 -48,17 -16,2 -31,0 -45,-5 -20,-7 -48,-21 -84,-43 -67,-41 -101,-62 -168,-103l-2 -1z"/>
   <path class="fil5" d="M2563 1621c-90,-84 -135,-126 -225,-209 -30,33 -45,50 -74,84 -19,-16 -29,-24 -48,-40 80,-95 122,-140 211,-222 17,18 25,28 42,46 -32,30 -48,45 -79,77 87,87 131,130 218,216 -18,19 -28,28 -45,48l0 0z"/>
   <path class="fil5" d="M2840 1371c-113,-100 -171,-149 -292,-241 24,-20 36,-29 61,-48 79,68 118,102 194,173 -39,-97 -58,-146 -92,-245 30,-20 45,-30 75,-48 77,74 114,112 187,189 -35,-99 -51,-149 -82,-251 26,-15 40,-22 66,-35 37,148 57,220 104,364 -23,13 -35,20 -58,34 -79,-81 -120,-121 -204,-198 37,108 56,161 99,267 -23,16 -34,24 -56,41l-2 -2z"/>
   <path class="fil5" d="M2990 847c27,-13 40,-19 67,-32 34,73 51,109 84,182 13,29 23,47 28,55 9,13 20,21 33,25 13,4 28,3 45,-4 17,-7 28,-16 33,-28 5,-11 7,-23 4,-36 -3,-12 -10,-32 -20,-60 -30,-76 -45,-114 -75,-190 28,-11 41,-16 69,-26 26,73 39,110 66,183 15,42 24,72 27,90 3,18 2,35 -2,50 -4,15 -12,29 -24,41 -12,12 -29,23 -51,33 -27,11 -50,17 -67,16 -17,-1 -33,-5 -47,-13 -14,-8 -25,-17 -34,-29 -13,-17 -29,-44 -48,-81 -35,-71 -53,-106 -88,-176l0 0z"/>
   <path class="fil5" d="M3447 1061c-46,-141 -68,-211 -114,-351 59,-19 89,-27 149,-42 38,-9 66,-12 85,-9 20,3 36,12 49,26 14,15 22,33 27,54 5,27 2,51 -9,72 -11,21 -59,47 -59,47 0,1 31,14 43,23 12,9 28,26 49,51 21,25 31,38 51,64 -29,5 -44,8 -73,14 -25,-28 -37,-41 -63,-68 -24,-24 -40,-39 -48,-44 -8,-6 -16,-9 -23,-10 -8,-1 -19,1 -34,5 -5,1 -8,2 -13,4 17,59 26,89 43,148 -24,7 -36,10 -60,18l0 -2zm1 -223l0 0c20,-6 29,-8 49,-13 32,-8 52,-14 59,-19 7,-5 12,-11 15,-20 3,-8 3,-18 1,-29 -3,-12 -8,-21 -16,-27 -8,-6 -18,-9 -30,-8 -6,0 -23,4 -51,11 -22,6 -32,8 -54,15 11,36 16,54 26,90l1 0z"/>
   <path class="fil5" d="M3750 990c-24,-146 -36,-218 -60,-364 29,-5 44,-7 73,-11 20,146 30,219 49,366 -25,3 -37,5 -62,9l0 0z"/>
   <path class="fil5" d="M3990 965c-7,-147 -10,-221 -18,-368 29,-1 44,-2 73,-2 1,58 2,87 3,145 54,-1 81,-1 135,2 2,-58 4,-87 6,-145 29,1 44,2 73,4 -10,147 -16,221 -26,368 -25,-2 -37,-2 -62,-3 3,-64 4,-97 7,-161 -53,-2 -79,-2 -132,-2 1,65 2,97 3,161 -25,0 -37,1 -62,2l0 -1z"/>
   <path class="fil5" d="M4576 1019c-26,-6 -40,-9 -67,-14 -4,-35 -6,-52 -11,-87 -51,-9 -76,-13 -127,-20 -15,32 -22,48 -36,80 -26,-3 -39,-4 -66,-7 61,-143 96,-214 173,-352 31,4 46,7 77,12 32,155 43,233 57,388zm-86 -167l0 0c-8,-57 -13,-86 -23,-143 -27,51 -41,77 -66,129 36,5 54,8 89,14l0 0z"/>
   <path class="fil5" d="M4609 1027c37,-143 56,-215 92,-358 28,7 42,11 69,18 30,111 42,167 60,277 33,-93 50,-140 83,-232 26,9 40,14 65,23 -54,138 -81,207 -135,344 -23,-9 -35,-13 -59,-21 -15,-107 -26,-161 -53,-269 -26,93 -40,139 -67,231 -22,-6 -34,-9 -56,-15l1 2z"/>
   <path class="fil5" d="M5050 784c50,21 75,32 124,56 27,13 47,26 59,38 16,16 27,34 32,56 5,22 6,45 1,69 -5,24 -16,51 -34,81 -15,26 -32,47 -48,63 -21,19 -42,33 -63,40 -16,6 -34,7 -54,5 -15,-2 -33,-8 -54,-18 -43,-21 -65,-31 -109,-49 59,-136 88,-204 146,-340l0 -1zm42 86l0 0c-41,89 -61,133 -103,222 18,8 26,12 44,20 16,8 29,13 37,14 11,2 21,2 31,-2 10,-3 20,-11 32,-23 12,-12 25,-31 38,-56 14,-25 22,-46 25,-61 3,-16 3,-29 -1,-41 -4,-12 -11,-22 -22,-31 -8,-7 -25,-17 -52,-29 -12,-6 -18,-8 -29,-14l0 1z"/>
   <path class="fil5" d="M5420 1435c-22,-18 -33,-27 -55,-44 12,-33 17,-50 28,-84 -42,-32 -64,-47 -108,-76 -27,22 -41,33 -68,56 -23,-15 -34,-22 -57,-35 118,-102 181,-150 312,-240 26,18 39,27 65,46 -39,155 -62,231 -117,377l0 0zm-7 -191l0 0c17,-55 26,-83 41,-140 -47,34 -71,51 -117,87 31,21 46,31 76,53z"/>
   <path class="fil5" d="M5478 1485c42,-46 62,-70 104,-116 19,-98 27,-148 37,-249 28,22 42,34 69,57 -11,68 -18,101 -32,167 64,-21 96,-30 163,-47 25,25 38,38 62,64 -101,17 -150,28 -247,55 -43,45 -64,68 -107,113 -19,-18 -28,-27 -48,-44l-1 0z"/>
   <path class="fil5" d="M5792 1842c-17,-25 -26,-37 -43,-60 20,-30 29,-45 49,-75 -34,-44 -51,-66 -88,-107 -33,14 -49,21 -81,36 -19,-21 -28,-31 -48,-51 141,-67 215,-97 365,-147 22,25 32,38 53,65 -76,142 -118,211 -208,340l1 -1zm40 -192l0 0c31,-50 46,-75 74,-126 -55,19 -82,30 -136,51 25,29 37,44 61,75l1 0z"/>
   <path class="fil5" d="M5813 1873c122,-83 184,-124 305,-207 18,26 26,40 43,67 -48,109 -75,162 -133,264 87,-47 130,-71 217,-118 15,27 22,41 36,71 -132,66 -198,99 -330,165 -13,-26 -19,-39 -33,-64 58,-96 85,-147 133,-251 -81,52 -122,77 -203,129 -14,-22 -20,-33 -35,-54l0 -2z"/>
   <path class="fil5" d="M5983 2180c134,-61 202,-92 336,-153 15,31 22,47 35,79 -137,56 -205,85 -342,141 -11,-27 -17,-41 -29,-67z"/>
   <path class="fil5" d="M3983 4190c29,-28 133,-26 164,0 34,28 26,172 26,172 0,0 60,77 58,107 -3,57 -111,160 -171,160 -60,0 -168,-106 -171,-164 -2,-31 60,-111 60,-111 0,0 3,-134 33,-164l1 0zm2 172l0 0c0,0 -43,66 -41,92 2,48 76,135 117,135 41,0 115,-84 117,-132 1,-25 -40,-88 -40,-88 0,0 6,-118 -18,-141 -21,-22 -93,-23 -112,0 -21,24 -23,135 -23,135l0 -1z"/>
   <path class="fil4" d="M4288 3647c0,0 0,0 0,0z"/>
   <path class="fil4" d="M4288 3647c0,0 0,1 0,0z"/>
   <path class="fil4" d="M4199 3490c-51,-81 -101,-175 -136,-287 -43,115 -18,227 3,323 24,109 50,220 -7,391 -21,63 -75,20 -59,-17 96,-224 -19,-435 -48,-497 -22,79 -85,168 -119,244 -47,105 -65,240 1,338 12,19 28,36 47,52 15,12 32,23 51,34 11,-8 24,-14 37,-20 4,-2 8,-4 12,-5 25,-9 52,-14 80,-14 40,0 78,10 111,28 6,3 12,7 18,11 121,-64 151,-179 137,-289 -3,-23 -8,-47 -14,-69 -7,-23 -15,-45 -24,-65l0 0 0 0 0 0c-24,-54 -56,-105 -89,-157l-1 -1z"/>
   <path class="fil6" d="M4092 3057c29,211 99,292 164,403 34,54 66,106 92,164 0,1 0,1 0,1 0,0 0,0 0,0l0 0c10,23 19,48 26,73 7,25 13,51 16,77 18,139 -24,284 -191,360l-20 9 -16 -13c-4,-4 -8,-6 -12,-9 -4,-3 -8,-5 -13,-8 -23,-12 -50,-20 -79,-20 -20,0 -39,4 -56,10 -3,1 -6,2 -8,3 -14,6 -27,14 -39,24l-16 13 -20 -9 -1 0c-32,-15 -59,-32 -83,-51 -24,-19 -43,-41 -58,-65 -78,-118 -59,-274 -6,-393 44,-99 122,-180 143,-304 7,-45 15,-91 54,-15 6,11 13,25 19,47 -20,-79 40,-246 61,-302 19,-49 37,-64 42,6l1 -1z"/>
   <g>
    <path class="fil0 str2" d="M4092 3057c29,211 99,292 164,403 34,54 66,106 92,164 0,1 0,1 0,1 0,0 0,0 0,0"/>
    <line class="fil0 str2" x1="4348" y1="3624" x2="4348" y2= "3624" />
    <path class="fil0 str2" d="M4348 3624c10,23 19,48 26,73 7,25 13,51 16,77 18,139 -24,284 -191,360"/>
    <polyline class="fil0 str2" points="4199,4134 4179,4143 4163,4130 "/>
    <path class="fil0 str2" d="M4163 4130c-4,-4 -8,-6 -12,-9 -4,-3 -8,-5 -13,-8 -23,-12 -50,-20 -79,-20 -20,0 -39,4 -56,10 -3,1 -6,2 -8,3 -14,6 -27,14 -39,24"/>
    <polyline class="fil0 str2" points="3956,4130 3940,4143 3920,4134 3919,4134 "/>
    <path class="fil0 str2" d="M3919 4134c-32,-15 -59,-32 -83,-51 -24,-19 -43,-41 -59,-65 -78,-118 -59,-274 -6,-393 44,-99 122,-180 143,-304 7,-45 15,-91 54,-16 6,12 13,26 20,48 -20,-79 40,-246 61,-302 19,-49 37,-64 42,6"/>
    <path class="fil5" d="M3993 3294c0,0 97,201 109,309 11,100 -98,308 -98,308 0,0 53,-194 46,-297 -6,-91 -91,-274 -91,-274l34 -47 0 1z"/>
   </g>
   <path class="fil7 str3" d="M4064 5179c84,-6 150,-34 228,-63 118,-45 225,-84 435,-32 58,15 119,41 184,69 137,58 287,123 462,109"/>
   <line class="fil7 str3" x1="5374" y1="5262" x2="5390" y2= "5206" />
   <path class="fil7 str3" d="M5390 5206c-75,-59 -99,-170 -122,-275 -6,-28 -12,-55 -19,-83 0,1 0,1 0,0"/>
   <polyline class="fil7 str3" points="5249,4848 5243,4826 5220,4824 "/>
   <path class="fil7 str3" d="M5220 4824c-129,-10 -217,-49 -332,-89 -49,-17 -88,-42 -150,-62 -169,-53 -342,-2 -485,35 -76,19 -138,70 -205,72"/>
   <polyline class="fil7 str3" points="4048,4779 4047,4779 4043,4779 4039,4779 4038,4779 "/>
   <path class="fil7 str3" d="M4038 4779c-67,-2 -87,-52 -162,-72 -143,-37 -299,-76 -467,-24 -62,20 -130,61 -179,78 -114,41 -204,67 -321,62"/>
   <polyline class="fil7 str3" points="2908,4824 2886,4826 2880,4848 "/>
   <path class="fil7 str3" d="M2880 4848c0,1 0,1 0,0 -8,29 -13,56 -20,83 -23,105 -48,216 -122,275"/>
   <line class="fil7 str3" x1="2738" y1="5206" x2="2755" y2= "5262" />
   <path class="fil7 str3" d="M2755 5262c175,15 326,-50 461,-109 65,-28 127,-54 184,-69 211,-53 317,-13 436,32 78,29 145,57 229,63"/>
  </g>
 </g>
</svg>
